# xmcd CD database file
#
# Track frame offsets:
#	150
#	16868
#	45181
#	68669
#	97534
#	119134
#	141839
#	167282
#	184444
#	203977
#	261749
#	284157
#	308838
#
# Disc length: 4364 seconds
#
# Revision: 0
# Processed by: cddbd v1.5.1PL2 Copyright (c) Steve Scherf et al.
# Submitted via: Feurio! 1.68 - http://www.feurio.com
#
DISCID=bb110a0d
DTITLE=Michl, Willy -  L- I- V- E
DYEAR=1900
DGENRE=Deutscher Blues
TTITLE0=Willy Michl - Sitz di her
TTITLE1=Willy Michl - Der Fuchs
TTITLE2=Willy Michl - Orang Utan
TTITLE3=Willy Michl - Drah di net um
TTITLE4=Willy Michl - Blütental
TTITLE5=Willy Michl - Indianer
TTITLE6=Willy Michl - Ich lieb nur dich
TTITLE7=Willy Michl - Das Haus am Niklassee
TTITLE8=Willy Michl - Telephon-Blues
TTITLE9=Willy Michl - Protein-Tango
TTITLE10=Willy Michl - Morgenstund
TTITLE11=Willy Michl - Schwabing
TTITLE12=Willy Michl - Die Trud
EXTD=
EXTT0=
EXTT1=
EXTT2=
EXTT3=
EXTT4=
EXTT5=
EXTT6=
EXTT7=
EXTT8=
EXTT9=
EXTT10=
EXTT11=
EXTT12=
PLAYORDER=
